<mxfile host="app.diagrams.net" modified="2024-03-13T02:24:29.487Z" agent="Mozilla/5.0 (Windows NT 10.0; Win64; x64) AppleWebKit/537.36 (KHTML, like Gecko) Chrome/122.0.0.0 Safari/537.36 Edg/122.0.0.0" etag="W_Z-Ne7DI_eKX7PKN7Hi" version="24.0.5" type="github">
  <diagram name="第 1 页" id="CAXrysIjeMIM-ZvZ8IjK">
    <mxGraphModel dx="2866" dy="1561" grid="0" gridSize="10" guides="1" tooltips="1" connect="1" arrows="1" fold="1" page="0" pageScale="1" pageWidth="827" pageHeight="1169" math="0" shadow="0">
      <root>
        <mxCell id="0" />
        <mxCell id="1" parent="0" />
        <mxCell id="53AAgACoUrvnk7wPuCtL-4" value="" style="rounded=0;whiteSpace=wrap;html=1;hachureGap=4;fontFamily=Architects Daughter;fontSource=https%3A%2F%2Ffonts.googleapis.com%2Fcss%3Ffamily%3DArchitects%2BDaughter;shadow=0;" vertex="1" parent="1">
          <mxGeometry x="-654" y="-217" width="1312" height="645" as="geometry" />
        </mxCell>
        <mxCell id="53AAgACoUrvnk7wPuCtL-6" value="" style="rounded=0;whiteSpace=wrap;html=1;hachureGap=4;fontFamily=Architects Daughter;fontSource=https%3A%2F%2Ffonts.googleapis.com%2Fcss%3Ffamily%3DArchitects%2BDaughter;shadow=0;" vertex="1" parent="1">
          <mxGeometry x="-627" y="-182" width="1285" height="610" as="geometry" />
        </mxCell>
        <mxCell id="53AAgACoUrvnk7wPuCtL-7" value="" style="endArrow=none;html=1;rounded=0;fontSize=12;startSize=8;endSize=8;curved=1;exitX=0;exitY=0;exitDx=0;exitDy=0;" edge="1" parent="1" source="53AAgACoUrvnk7wPuCtL-6">
          <mxGeometry width="50" height="50" relative="1" as="geometry">
            <mxPoint x="175" y="225" as="sourcePoint" />
            <mxPoint x="-655" y="-182" as="targetPoint" />
          </mxGeometry>
        </mxCell>
        <mxCell id="53AAgACoUrvnk7wPuCtL-8" value="" style="endArrow=none;html=1;rounded=0;fontSize=12;startSize=8;endSize=8;curved=1;exitX=0;exitY=0.05;exitDx=0;exitDy=0;exitPerimeter=0;entryX=1;entryY=0.05;entryDx=0;entryDy=0;entryPerimeter=0;" edge="1" parent="1" source="53AAgACoUrvnk7wPuCtL-6" target="53AAgACoUrvnk7wPuCtL-6">
          <mxGeometry width="50" height="50" relative="1" as="geometry">
            <mxPoint x="16" y="191" as="sourcePoint" />
            <mxPoint x="66" y="141" as="targetPoint" />
          </mxGeometry>
        </mxCell>
        <mxCell id="53AAgACoUrvnk7wPuCtL-9" value="" style="endArrow=none;html=1;rounded=0;fontSize=12;startSize=8;endSize=8;curved=1;entryX=0.095;entryY=0;entryDx=0;entryDy=0;entryPerimeter=0;exitX=0.097;exitY=1.002;exitDx=0;exitDy=0;exitPerimeter=0;" edge="1" parent="1" source="53AAgACoUrvnk7wPuCtL-6" target="53AAgACoUrvnk7wPuCtL-6">
          <mxGeometry width="50" height="50" relative="1" as="geometry">
            <mxPoint x="27" y="211" as="sourcePoint" />
            <mxPoint x="77" y="161" as="targetPoint" />
          </mxGeometry>
        </mxCell>
        <mxCell id="53AAgACoUrvnk7wPuCtL-10" value="" style="endArrow=none;html=1;rounded=0;fontSize=12;startSize=8;endSize=8;curved=1;entryX=0.095;entryY=0;entryDx=0;entryDy=0;entryPerimeter=0;exitX=0.097;exitY=1.002;exitDx=0;exitDy=0;exitPerimeter=0;" edge="1" parent="1">
          <mxGeometry width="50" height="50" relative="1" as="geometry">
            <mxPoint x="-355" y="429" as="sourcePoint" />
            <mxPoint x="-358" y="-182" as="targetPoint" />
          </mxGeometry>
        </mxCell>
        <mxCell id="53AAgACoUrvnk7wPuCtL-11" value="" style="endArrow=none;html=1;rounded=0;fontSize=12;startSize=8;endSize=8;curved=1;entryX=0.095;entryY=0;entryDx=0;entryDy=0;entryPerimeter=0;exitX=0.097;exitY=1.002;exitDx=0;exitDy=0;exitPerimeter=0;" edge="1" parent="1">
          <mxGeometry width="50" height="50" relative="1" as="geometry">
            <mxPoint x="-206" y="428" as="sourcePoint" />
            <mxPoint x="-209" y="-183" as="targetPoint" />
          </mxGeometry>
        </mxCell>
        <mxCell id="53AAgACoUrvnk7wPuCtL-12" value="" style="endArrow=none;html=1;rounded=0;fontSize=12;startSize=8;endSize=8;curved=1;entryX=0.095;entryY=0;entryDx=0;entryDy=0;entryPerimeter=0;exitX=0.097;exitY=1.002;exitDx=0;exitDy=0;exitPerimeter=0;" edge="1" parent="1">
          <mxGeometry width="50" height="50" relative="1" as="geometry">
            <mxPoint x="-44" y="426" as="sourcePoint" />
            <mxPoint x="-47" y="-185" as="targetPoint" />
          </mxGeometry>
        </mxCell>
        <mxCell id="53AAgACoUrvnk7wPuCtL-13" value="" style="endArrow=none;html=1;rounded=0;fontSize=12;startSize=8;endSize=8;curved=1;entryX=0.095;entryY=0;entryDx=0;entryDy=0;entryPerimeter=0;exitX=0.097;exitY=1.002;exitDx=0;exitDy=0;exitPerimeter=0;" edge="1" parent="1">
          <mxGeometry width="50" height="50" relative="1" as="geometry">
            <mxPoint x="125" y="424" as="sourcePoint" />
            <mxPoint x="122" y="-187" as="targetPoint" />
          </mxGeometry>
        </mxCell>
        <mxCell id="53AAgACoUrvnk7wPuCtL-14" value="" style="endArrow=none;html=1;rounded=0;fontSize=12;startSize=8;endSize=8;curved=1;entryX=0.095;entryY=0;entryDx=0;entryDy=0;entryPerimeter=0;exitX=0.097;exitY=1.002;exitDx=0;exitDy=0;exitPerimeter=0;" edge="1" parent="1">
          <mxGeometry width="50" height="50" relative="1" as="geometry">
            <mxPoint x="291" y="428" as="sourcePoint" />
            <mxPoint x="288" y="-183" as="targetPoint" />
          </mxGeometry>
        </mxCell>
        <mxCell id="53AAgACoUrvnk7wPuCtL-15" value="" style="endArrow=none;html=1;rounded=0;fontSize=12;startSize=8;endSize=8;curved=1;entryX=0.095;entryY=0;entryDx=0;entryDy=0;entryPerimeter=0;exitX=0.097;exitY=1.002;exitDx=0;exitDy=0;exitPerimeter=0;" edge="1" parent="1">
          <mxGeometry width="50" height="50" relative="1" as="geometry">
            <mxPoint x="460" y="429" as="sourcePoint" />
            <mxPoint x="457" y="-182" as="targetPoint" />
          </mxGeometry>
        </mxCell>
      </root>
    </mxGraphModel>
  </diagram>
</mxfile>
